<?xml version="1.0" encoding="utf-8" standalone="no"?>
<!DOCTYPE svg PUBLIC "-//W3C//DTD SVG 1.1//EN"
  "http://www.w3.org/Graphics/SVG/1.1/DTD/svg11.dtd">
<!-- Created with matplotlib (https://matplotlib.org/) -->
<svg height="686.445pt" version="1.1" viewBox="0 0 714.5 686.445" width="714.5pt" xmlns="http://www.w3.org/2000/svg" xmlns:xlink="http://www.w3.org/1999/xlink">
 <defs>
  <style type="text/css">
*{stroke-linecap:butt;stroke-linejoin:round;}
  </style>
 </defs>
 <g id="figure_1">
  <g id="patch_1">
   <path d="M 0 686.445 
L 714.5 686.445 
L 714.5 0 
L 0 0 
z
" style="fill:none;"/>
  </g>
  <g id="axes_1">
   <g id="patch_2">
    <path d="M 37.7 659.52 
L 707.3 659.52 
L 707.3 7.2 
L 37.7 7.2 
z
" style="fill:#ffffff;"/>
   </g>
   <g id="patch_3">
    <path clip-path="url(#pdab033e818)" d="M 46.07 128612.892701 
L 48.1625 128612.892701 
L 48.1625 40.840643 
L 46.07 40.840643 
z
" style="fill:#1f77b4;"/>
   </g>
   <g id="patch_4">
    <path clip-path="url(#pdab033e818)" d="M 79.55 128612.892701 
L 81.6425 128612.892701 
L 81.6425 153.535599 
L 79.55 153.535599 
z
" style="fill:#1f77b4;"/>
   </g>
   <g id="patch_5">
    <path clip-path="url(#pdab033e818)" d="M 113.03 128612.892701 
L 115.1225 128612.892701 
L 115.1225 275.247483 
L 113.03 275.247483 
z
" style="fill:#1f77b4;"/>
   </g>
   <g id="patch_6">
    <path clip-path="url(#pdab033e818)" d="M 146.51 128612.892701 
L 148.6025 128612.892701 
L 148.6025 347.518987 
L 146.51 347.518987 
z
" style="fill:#1f77b4;"/>
   </g>
   <g id="patch_7">
    <path clip-path="url(#pdab033e818)" d="M 179.99 128612.892701 
L 182.0825 128612.892701 
L 182.0825 390.523185 
L 179.99 390.523185 
z
" style="fill:#1f77b4;"/>
   </g>
   <g id="patch_8">
    <path clip-path="url(#pdab033e818)" d="M 213.47 128612.892701 
L 215.5625 128612.892701 
L 215.5625 408.86743 
L 213.47 408.86743 
z
" style="fill:#1f77b4;"/>
   </g>
   <g id="patch_9">
    <path clip-path="url(#pdab033e818)" d="M 246.95 128612.892701 
L 249.0425 128612.892701 
L 249.0425 480.397029 
L 246.95 480.397029 
z
" style="fill:#1f77b4;"/>
   </g>
   <g id="patch_10">
    <path clip-path="url(#pdab033e818)" d="M 280.43 128612.892701 
L 282.5225 128612.892701 
L 282.5225 508.92243 
L 280.43 508.92243 
z
" style="fill:#1f77b4;"/>
   </g>
   <g id="patch_11">
    <path clip-path="url(#pdab033e818)" d="M 313.91 128612.892701 
L 316.0025 128612.892701 
L 316.0025 492.857757 
L 313.91 492.857757 
z
" style="fill:#1f77b4;"/>
   </g>
   <g id="patch_12">
    <path clip-path="url(#pdab033e818)" d="M 347.39 128612.892701 
L 349.4825 128612.892701 
L 349.4825 531.564315 
L 347.39 531.564315 
z
" style="fill:#1f77b4;"/>
   </g>
   <g id="patch_13">
    <path clip-path="url(#pdab033e818)" d="M 380.87 128612.892701 
L 382.9625 128612.892701 
L 382.9625 508.92243 
L 380.87 508.92243 
z
" style="fill:#1f77b4;"/>
   </g>
   <g id="patch_14">
    <path clip-path="url(#pdab033e818)" d="M 414.35 128612.892701 
L 416.4425 128612.892701 
L 416.4425 531.564315 
L 414.35 531.564315 
z
" style="fill:#1f77b4;"/>
   </g>
   <g id="patch_15">
    <path clip-path="url(#pdab033e818)" d="M 447.83 128612.892701 
L 449.9225 128612.892701 
L 449.9225 492.857757 
L 447.83 492.857757 
z
" style="fill:#1f77b4;"/>
   </g>
   <g id="patch_16">
    <path clip-path="url(#pdab033e818)" d="M 481.31 128612.892701 
L 483.4025 128612.892701 
L 483.4025 492.857757 
L 481.31 492.857757 
z
" style="fill:#1f77b4;"/>
   </g>
   <g id="patch_17">
    <path clip-path="url(#pdab033e818)" d="M 514.79 128612.892701 
L 516.8825 128612.892701 
L 516.8825 531.564315 
L 514.79 531.564315 
z
" style="fill:#1f77b4;"/>
   </g>
   <g id="patch_18">
    <path clip-path="url(#pdab033e818)" d="M 548.27 128612.892701 
L 550.3625 128612.892701 
L 550.3625 570.270873 
L 548.27 570.270873 
z
" style="fill:#1f77b4;"/>
   </g>
   <g id="patch_19">
    <path clip-path="url(#pdab033e818)" d="M 581.75 128612.892701 
L 583.8425 128612.892701 
L 583.8425 492.857757 
L 581.75 492.857757 
z
" style="fill:#1f77b4;"/>
   </g>
   <g id="patch_20">
    <path clip-path="url(#pdab033e818)" d="M 615.23 128612.892701 
L 617.3225 128612.892701 
L 617.3225 570.270873 
L 615.23 570.270873 
z
" style="fill:#1f77b4;"/>
   </g>
   <g id="patch_21">
    <path clip-path="url(#pdab033e818)" d="M 648.71 128612.892701 
L 650.8025 128612.892701 
L 650.8025 128612.892701 
L 648.71 128612.892701 
z
" style="fill:#1f77b4;"/>
   </g>
   <g id="patch_22">
    <path clip-path="url(#pdab033e818)" d="M 682.19 128612.892701 
L 684.2825 128612.892701 
L 684.2825 128612.892701 
L 682.19 128612.892701 
z
" style="fill:#1f77b4;"/>
   </g>
   <g id="patch_23">
    <path clip-path="url(#pdab033e818)" d="M 48.1625 128612.892701 
L 50.255 128612.892701 
L 50.255 37.067872 
L 48.1625 37.067872 
z
" style="fill:#ff7f0e;"/>
   </g>
   <g id="patch_24">
    <path clip-path="url(#pdab033e818)" d="M 81.6425 128612.892701 
L 83.735 128612.892701 
L 83.735 182.205118 
L 81.6425 182.205118 
z
" style="fill:#ff7f0e;"/>
   </g>
   <g id="patch_25">
    <path clip-path="url(#pdab033e818)" d="M 115.1225 128612.892701 
L 117.215 128612.892701 
L 117.215 401.27027 
L 115.1225 401.27027 
z
" style="fill:#ff7f0e;"/>
   </g>
   <g id="patch_26">
    <path clip-path="url(#pdab033e818)" d="M 148.6025 128612.892701 
L 150.695 128612.892701 
L 150.695 475.079441 
L 148.6025 475.079441 
z
" style="fill:#ff7f0e;"/>
   </g>
   <g id="patch_27">
    <path clip-path="url(#pdab033e818)" d="M 182.0825 128612.892701 
L 184.175 128612.892701 
L 184.175 478.683386 
L 182.0825 478.683386 
z
" style="fill:#ff7f0e;"/>
   </g>
   <g id="patch_28">
    <path clip-path="url(#pdab033e818)" d="M 215.5625 128612.892701 
L 217.655 128612.892701 
L 217.655 496.002982 
L 215.5625 496.002982 
z
" style="fill:#ff7f0e;"/>
   </g>
   <g id="patch_29">
    <path clip-path="url(#pdab033e818)" d="M 249.0425 128612.892701 
L 251.135 128612.892701 
L 251.135 457.296424 
L 249.0425 457.296424 
z
" style="fill:#ff7f0e;"/>
   </g>
   <g id="patch_30">
    <path clip-path="url(#pdab033e818)" d="M 282.5225 128612.892701 
L 284.615 128612.892701 
L 284.615 475.079441 
L 282.5225 475.079441 
z
" style="fill:#ff7f0e;"/>
   </g>
   <g id="patch_31">
    <path clip-path="url(#pdab033e818)" d="M 316.0025 128612.892701 
L 318.095 128612.892701 
L 318.095 501.32527 
L 316.0025 501.32527 
z
" style="fill:#ff7f0e;"/>
   </g>
   <g id="patch_32">
    <path clip-path="url(#pdab033e818)" d="M 349.4825 128612.892701 
L 351.575 128612.892701 
L 351.575 496.002982 
L 349.4825 496.002982 
z
" style="fill:#ff7f0e;"/>
   </g>
   <g id="patch_33">
    <path clip-path="url(#pdab033e818)" d="M 382.9625 128612.892701 
L 385.055 128612.892701 
L 385.055 529.850672 
L 382.9625 529.850672 
z
" style="fill:#ff7f0e;"/>
   </g>
   <g id="patch_34">
    <path clip-path="url(#pdab033e818)" d="M 416.4425 128612.892701 
L 418.535 128612.892701 
L 418.535 478.683386 
L 416.4425 478.683386 
z
" style="fill:#ff7f0e;"/>
   </g>
   <g id="patch_35">
    <path clip-path="url(#pdab033e818)" d="M 449.9225 128612.892701 
L 452.015 128612.892701 
L 452.015 496.002982 
L 449.9225 496.002982 
z
" style="fill:#ff7f0e;"/>
   </g>
   <g id="patch_36">
    <path clip-path="url(#pdab033e818)" d="M 483.4025 128612.892701 
L 485.495 128612.892701 
L 485.495 501.32527 
L 483.4025 501.32527 
z
" style="fill:#ff7f0e;"/>
   </g>
   <g id="patch_37">
    <path clip-path="url(#pdab033e818)" d="M 516.8825 128612.892701 
L 518.975 128612.892701 
L 518.975 496.002982 
L 516.8825 496.002982 
z
" style="fill:#ff7f0e;"/>
   </g>
   <g id="patch_38">
    <path clip-path="url(#pdab033e818)" d="M 550.3625 128612.892701 
L 552.455 128612.892701 
L 552.455 486.674388 
L 550.3625 486.674388 
z
" style="fill:#ff7f0e;"/>
   </g>
   <g id="patch_39">
    <path clip-path="url(#pdab033e818)" d="M 583.8425 128612.892701 
L 585.935 128612.892701 
L 585.935 540.031828 
L 583.8425 540.031828 
z
" style="fill:#ff7f0e;"/>
   </g>
   <g id="patch_40">
    <path clip-path="url(#pdab033e818)" d="M 617.3225 128612.892701 
L 619.415 128612.892701 
L 619.415 496.002982 
L 617.3225 496.002982 
z
" style="fill:#ff7f0e;"/>
   </g>
   <g id="patch_41">
    <path clip-path="url(#pdab033e818)" d="M 650.8025 128612.892701 
L 652.895 128612.892701 
L 652.895 496.002982 
L 650.8025 496.002982 
z
" style="fill:#ff7f0e;"/>
   </g>
   <g id="patch_42">
    <path clip-path="url(#pdab033e818)" d="M 684.2825 128612.892701 
L 686.375 128612.892701 
L 686.375 496.002982 
L 684.2825 496.002982 
z
" style="fill:#ff7f0e;"/>
   </g>
   <g id="patch_43">
    <path clip-path="url(#pdab033e818)" d="M 50.255 128612.892701 
L 52.3475 128612.892701 
L 52.3475 40.35989 
L 50.255 40.35989 
z
" style="fill:#2ca02c;"/>
   </g>
   <g id="patch_44">
    <path clip-path="url(#pdab033e818)" d="M 83.735 128612.892701 
L 85.8275 128612.892701 
L 85.8275 155.559192 
L 83.735 155.559192 
z
" style="fill:#2ca02c;"/>
   </g>
   <g id="patch_45">
    <path clip-path="url(#pdab033e818)" d="M 117.215 128612.892701 
L 119.3075 128612.892701 
L 119.3075 271.338083 
L 117.215 271.338083 
z
" style="fill:#2ca02c;"/>
   </g>
   <g id="patch_46">
    <path clip-path="url(#pdab033e818)" d="M 150.695 128612.892701 
L 152.7875 128612.892701 
L 152.7875 360.232222 
L 150.695 360.232222 
z
" style="fill:#2ca02c;"/>
   </g>
   <g id="patch_47">
    <path clip-path="url(#pdab033e818)" d="M 184.175 128612.892701 
L 186.2675 128612.892701 
L 186.2675 396.562176 
L 184.175 396.562176 
z
" style="fill:#2ca02c;"/>
   </g>
   <g id="patch_48">
    <path clip-path="url(#pdab033e818)" d="M 217.655 128612.892701 
L 219.7475 128612.892701 
L 219.7475 435.268734 
L 217.655 435.268734 
z
" style="fill:#2ca02c;"/>
   </g>
   <g id="patch_49">
    <path clip-path="url(#pdab033e818)" d="M 251.135 128612.892701 
L 253.2275 128612.892701 
L 253.2275 465.367247 
L 251.135 465.367247 
z
" style="fill:#2ca02c;"/>
   </g>
   <g id="patch_50">
    <path clip-path="url(#pdab033e818)" d="M 284.615 128612.892701 
L 286.7075 128612.892701 
L 286.7075 484.156448 
L 284.615 484.156448 
z
" style="fill:#2ca02c;"/>
   </g>
   <g id="patch_51">
    <path clip-path="url(#pdab033e818)" d="M 318.095 128612.892701 
L 320.1875 128612.892701 
L 320.1875 496.617177 
L 318.095 496.617177 
z
" style="fill:#2ca02c;"/>
   </g>
   <g id="patch_52">
    <path clip-path="url(#pdab033e818)" d="M 351.575 128612.892701 
L 353.6675 128612.892701 
L 353.6675 496.617177 
L 351.575 496.617177 
z
" style="fill:#2ca02c;"/>
   </g>
   <g id="patch_53">
    <path clip-path="url(#pdab033e818)" d="M 385.055 128612.892701 
L 387.1475 128612.892701 
L 387.1475 496.617177 
L 385.055 496.617177 
z
" style="fill:#2ca02c;"/>
   </g>
   <g id="patch_54">
    <path clip-path="url(#pdab033e818)" d="M 418.535 128612.892701 
L 420.6275 128612.892701 
L 420.6275 574.030293 
L 418.535 574.030293 
z
" style="fill:#2ca02c;"/>
   </g>
   <g id="patch_55">
    <path clip-path="url(#pdab033e818)" d="M 452.015 128612.892701 
L 454.1075 128612.892701 
L 454.1075 128612.892701 
L 452.015 128612.892701 
z
" style="fill:#2ca02c;"/>
   </g>
   <g id="patch_56">
    <path clip-path="url(#pdab033e818)" d="M 485.495 128612.892701 
L 487.5875 128612.892701 
L 487.5875 574.030293 
L 485.495 574.030293 
z
" style="fill:#2ca02c;"/>
   </g>
   <g id="patch_57">
    <path clip-path="url(#pdab033e818)" d="M 518.975 128612.892701 
L 521.0675 128612.892701 
L 521.0675 574.030293 
L 518.975 574.030293 
z
" style="fill:#2ca02c;"/>
   </g>
   <g id="patch_58">
    <path clip-path="url(#pdab033e818)" d="M 552.455 128612.892701 
L 554.5475 128612.892701 
L 554.5475 574.030293 
L 552.455 574.030293 
z
" style="fill:#2ca02c;"/>
   </g>
   <g id="patch_59">
    <path clip-path="url(#pdab033e818)" d="M 585.935 128612.892701 
L 588.0275 128612.892701 
L 588.0275 128612.892701 
L 585.935 128612.892701 
z
" style="fill:#2ca02c;"/>
   </g>
   <g id="patch_60">
    <path clip-path="url(#pdab033e818)" d="M 619.415 128612.892701 
L 621.5075 128612.892701 
L 621.5075 128612.892701 
L 619.415 128612.892701 
z
" style="fill:#2ca02c;"/>
   </g>
   <g id="patch_61">
    <path clip-path="url(#pdab033e818)" d="M 652.895 128612.892701 
L 654.9875 128612.892701 
L 654.9875 574.030293 
L 652.895 574.030293 
z
" style="fill:#2ca02c;"/>
   </g>
   <g id="patch_62">
    <path clip-path="url(#pdab033e818)" d="M 686.375 128612.892701 
L 688.4675 128612.892701 
L 688.4675 128612.892701 
L 686.375 128612.892701 
z
" style="fill:#2ca02c;"/>
   </g>
   <g id="patch_63">
    <path clip-path="url(#pdab033e818)" d="M 52.3475 128612.892701 
L 54.44 128612.892701 
L 54.44 40.503522 
L 52.3475 40.503522 
z
" style="fill:#d62728;"/>
   </g>
   <g id="patch_64">
    <path clip-path="url(#pdab033e818)" d="M 85.8275 128612.892701 
L 87.92 128612.892701 
L 87.92 153.073971 
L 85.8275 153.073971 
z
" style="fill:#d62728;"/>
   </g>
   <g id="patch_65">
    <path clip-path="url(#pdab033e818)" d="M 119.3075 128612.892701 
L 121.4 128612.892701 
L 121.4 280.035658 
L 119.3075 280.035658 
z
" style="fill:#d62728;"/>
   </g>
   <g id="patch_66">
    <path clip-path="url(#pdab033e818)" d="M 152.7875 128612.892701 
L 154.88 128612.892701 
L 154.88 370.526545 
L 152.7875 370.526545 
z
" style="fill:#d62728;"/>
   </g>
   <g id="patch_67">
    <path clip-path="url(#pdab033e818)" d="M 186.2675 128612.892701 
L 188.36 128612.892701 
L 188.36 403.349586 
L 186.2675 403.349586 
z
" style="fill:#d62728;"/>
   </g>
   <g id="patch_68">
    <path clip-path="url(#pdab033e818)" d="M 219.7475 128612.892701 
L 221.84 128612.892701 
L 221.84 423.266942 
L 219.7475 423.266942 
z
" style="fill:#d62728;"/>
   </g>
   <g id="patch_69">
    <path clip-path="url(#pdab033e818)" d="M 253.2275 128612.892701 
L 255.32 128612.892701 
L 255.32 447.939661 
L 253.2275 447.939661 
z
" style="fill:#d62728;"/>
   </g>
   <g id="patch_70">
    <path clip-path="url(#pdab033e818)" d="M 286.7075 128612.892701 
L 288.8 128612.892701 
L 288.8 470.581545 
L 286.7075 470.581545 
z
" style="fill:#d62728;"/>
   </g>
   <g id="patch_71">
    <path clip-path="url(#pdab033e818)" d="M 320.1875 128612.892701 
L 322.28 128612.892701 
L 322.28 470.581545 
L 320.1875 470.581545 
z
" style="fill:#d62728;"/>
   </g>
   <g id="patch_72">
    <path clip-path="url(#pdab033e818)" d="M 353.6675 128612.892701 
L 355.76 128612.892701 
L 355.76 570.636546 
L 353.6675 570.636546 
z
" style="fill:#d62728;"/>
   </g>
   <g id="patch_73">
    <path clip-path="url(#pdab033e818)" d="M 387.1475 128612.892701 
L 389.24 128612.892701 
L 389.24 128612.892701 
L 387.1475 128612.892701 
z
" style="fill:#d62728;"/>
   </g>
   <g id="patch_74">
    <path clip-path="url(#pdab033e818)" d="M 420.6275 128612.892701 
L 422.72 128612.892701 
L 422.72 128612.892701 
L 420.6275 128612.892701 
z
" style="fill:#d62728;"/>
   </g>
   <g id="patch_75">
    <path clip-path="url(#pdab033e818)" d="M 454.1075 128612.892701 
L 456.2 128612.892701 
L 456.2 570.636546 
L 454.1075 570.636546 
z
" style="fill:#d62728;"/>
   </g>
   <g id="patch_76">
    <path clip-path="url(#pdab033e818)" d="M 487.5875 128612.892701 
L 489.68 128612.892701 
L 489.68 128612.892701 
L 487.5875 128612.892701 
z
" style="fill:#d62728;"/>
   </g>
   <g id="patch_77">
    <path clip-path="url(#pdab033e818)" d="M 521.0675 128612.892701 
L 523.16 128612.892701 
L 523.16 570.636546 
L 521.0675 570.636546 
z
" style="fill:#d62728;"/>
   </g>
   <g id="patch_78">
    <path clip-path="url(#pdab033e818)" d="M 554.5475 128612.892701 
L 556.64 128612.892701 
L 556.64 128612.892701 
L 554.5475 128612.892701 
z
" style="fill:#d62728;"/>
   </g>
   <g id="patch_79">
    <path clip-path="url(#pdab033e818)" d="M 588.0275 128612.892701 
L 590.12 128612.892701 
L 590.12 128612.892701 
L 588.0275 128612.892701 
z
" style="fill:#d62728;"/>
   </g>
   <g id="patch_80">
    <path clip-path="url(#pdab033e818)" d="M 621.5075 128612.892701 
L 623.6 128612.892701 
L 623.6 128612.892701 
L 621.5075 128612.892701 
z
" style="fill:#d62728;"/>
   </g>
   <g id="patch_81">
    <path clip-path="url(#pdab033e818)" d="M 654.9875 128612.892701 
L 657.08 128612.892701 
L 657.08 128612.892701 
L 654.9875 128612.892701 
z
" style="fill:#d62728;"/>
   </g>
   <g id="patch_82">
    <path clip-path="url(#pdab033e818)" d="M 688.4675 128612.892701 
L 690.56 128612.892701 
L 690.56 128612.892701 
L 688.4675 128612.892701 
z
" style="fill:#d62728;"/>
   </g>
   <g id="patch_83">
    <path clip-path="url(#pdab033e818)" d="M 54.44 128612.892701 
L 56.5325 128612.892701 
L 56.5325 36.850909 
L 54.44 36.850909 
z
" style="fill:#9467bd;"/>
   </g>
   <g id="patch_84">
    <path clip-path="url(#pdab033e818)" d="M 87.92 128612.892701 
L 90.0125 128612.892701 
L 90.0125 182.058177 
L 87.92 182.058177 
z
" style="fill:#9467bd;"/>
   </g>
   <g id="patch_85">
    <path clip-path="url(#pdab033e818)" d="M 121.4 128612.892701 
L 123.4925 128612.892701 
L 123.4925 391.052532 
L 121.4 391.052532 
z
" style="fill:#9467bd;"/>
   </g>
   <g id="patch_86">
    <path clip-path="url(#pdab033e818)" d="M 154.88 128612.892701 
L 156.9725 128612.892701 
L 156.9725 454.777578 
L 154.88 454.777578 
z
" style="fill:#9467bd;"/>
   </g>
   <g id="patch_87">
    <path clip-path="url(#pdab033e818)" d="M 188.36 128612.892701 
L 190.4525 128612.892701 
L 190.4525 507.172205 
L 188.36 507.172205 
z
" style="fill:#9467bd;"/>
   </g>
   <g id="patch_88">
    <path clip-path="url(#pdab033e818)" d="M 221.84 128612.892701 
L 223.9325 128612.892701 
L 223.9325 478.646804 
L 221.84 478.646804 
z
" style="fill:#9467bd;"/>
   </g>
   <g id="patch_89">
    <path clip-path="url(#pdab033e818)" d="M 255.32 128612.892701 
L 257.4125 128612.892701 
L 257.4125 495.966401 
L 255.32 495.966401 
z
" style="fill:#9467bd;"/>
   </g>
   <g id="patch_90">
    <path clip-path="url(#pdab033e818)" d="M 288.8 128612.892701 
L 290.8925 128612.892701 
L 290.8925 539.995247 
L 288.8 539.995247 
z
" style="fill:#9467bd;"/>
   </g>
   <g id="patch_91">
    <path clip-path="url(#pdab033e818)" d="M 322.28 128612.892701 
L 324.3725 128612.892701 
L 324.3725 539.995247 
L 322.28 539.995247 
z
" style="fill:#9467bd;"/>
   </g>
   <g id="patch_92">
    <path clip-path="url(#pdab033e818)" d="M 355.76 128612.892701 
L 357.8525 128612.892701 
L 357.8525 521.206045 
L 355.76 521.206045 
z
" style="fill:#9467bd;"/>
   </g>
   <g id="patch_93">
    <path clip-path="url(#pdab033e818)" d="M 389.24 128612.892701 
L 391.3325 128612.892701 
L 391.3325 491.107532 
L 389.24 491.107532 
z
" style="fill:#9467bd;"/>
   </g>
   <g id="patch_94">
    <path clip-path="url(#pdab033e818)" d="M 422.72 128612.892701 
L 424.8125 128612.892701 
L 424.8125 465.446439 
L 422.72 465.446439 
z
" style="fill:#9467bd;"/>
   </g>
   <g id="patch_95">
    <path clip-path="url(#pdab033e818)" d="M 456.2 128612.892701 
L 458.2925 128612.892701 
L 458.2925 521.206045 
L 456.2 521.206045 
z
" style="fill:#9467bd;"/>
   </g>
   <g id="patch_96">
    <path clip-path="url(#pdab033e818)" d="M 489.68 128612.892701 
L 491.7725 128612.892701 
L 491.7725 529.81409 
L 489.68 529.81409 
z
" style="fill:#9467bd;"/>
   </g>
   <g id="patch_97">
    <path clip-path="url(#pdab033e818)" d="M 523.16 128612.892701 
L 525.2525 128612.892701 
L 525.2525 529.81409 
L 523.16 529.81409 
z
" style="fill:#9467bd;"/>
   </g>
   <g id="patch_98">
    <path clip-path="url(#pdab033e818)" d="M 556.64 128612.892701 
L 558.7325 128612.892701 
L 558.7325 591.162533 
L 556.64 591.162533 
z
" style="fill:#9467bd;"/>
   </g>
   <g id="patch_99">
    <path clip-path="url(#pdab033e818)" d="M 590.12 128612.892701 
L 592.2125 128612.892701 
L 592.2125 591.162533 
L 590.12 591.162533 
z
" style="fill:#9467bd;"/>
   </g>
   <g id="patch_100">
    <path clip-path="url(#pdab033e818)" d="M 623.6 128612.892701 
L 625.6925 128612.892701 
L 625.6925 591.162533 
L 623.6 591.162533 
z
" style="fill:#9467bd;"/>
   </g>
   <g id="patch_101">
    <path clip-path="url(#pdab033e818)" d="M 657.08 128612.892701 
L 659.1725 128612.892701 
L 659.1725 629.869091 
L 657.08 629.869091 
z
" style="fill:#9467bd;"/>
   </g>
   <g id="patch_102">
    <path clip-path="url(#pdab033e818)" d="M 690.56 128612.892701 
L 692.6525 128612.892701 
L 692.6525 568.520648 
L 690.56 568.520648 
z
" style="fill:#9467bd;"/>
   </g>
   <g id="patch_103">
    <path clip-path="url(#pdab033e818)" d="M 56.5325 128612.892701 
L 58.625 128612.892701 
L 58.625 40.170083 
L 56.5325 40.170083 
z
" style="fill:#8c564b;"/>
   </g>
   <g id="patch_104">
    <path clip-path="url(#pdab033e818)" d="M 90.0125 128612.892701 
L 92.105 128612.892701 
L 92.105 155.821058 
L 90.0125 155.821058 
z
" style="fill:#8c564b;"/>
   </g>
   <g id="patch_105">
    <path clip-path="url(#pdab033e818)" d="M 123.4925 128612.892701 
L 125.585 128612.892701 
L 125.585 281.00627 
L 123.4925 281.00627 
z
" style="fill:#8c564b;"/>
   </g>
   <g id="patch_106">
    <path clip-path="url(#pdab033e818)" d="M 156.9725 128612.892701 
L 159.065 128612.892701 
L 159.065 362.993782 
L 156.9725 362.993782 
z
" style="fill:#8c564b;"/>
   </g>
   <g id="patch_107">
    <path clip-path="url(#pdab033e818)" d="M 190.4525 128612.892701 
L 192.545 128612.892701 
L 192.545 408.962735 
L 190.4525 408.962735 
z
" style="fill:#8c564b;"/>
   </g>
   <g id="patch_108">
    <path clip-path="url(#pdab033e818)" d="M 223.9325 128612.892701 
L 226.025 128612.892701 
L 226.025 422.996575 
L 223.9325 422.996575 
z
" style="fill:#8c564b;"/>
   </g>
   <g id="patch_109">
    <path clip-path="url(#pdab033e818)" d="M 257.4125 128612.892701 
L 259.505 128612.892701 
L 259.505 470.311178 
L 257.4125 470.311178 
z
" style="fill:#8c564b;"/>
   </g>
   <g id="patch_110">
    <path clip-path="url(#pdab033e818)" d="M 290.8925 128612.892701 
L 292.985 128612.892701 
L 292.985 492.953063 
L 290.8925 492.953063 
z
" style="fill:#8c564b;"/>
   </g>
   <g id="patch_111">
    <path clip-path="url(#pdab033e818)" d="M 324.3725 128612.892701 
L 326.465 128612.892701 
L 326.465 480.492334 
L 324.3725 480.492334 
z
" style="fill:#8c564b;"/>
   </g>
   <g id="patch_112">
    <path clip-path="url(#pdab033e818)" d="M 357.8525 128612.892701 
L 359.945 128612.892701 
L 359.945 509.017736 
L 357.8525 509.017736 
z
" style="fill:#8c564b;"/>
   </g>
   <g id="patch_113">
    <path clip-path="url(#pdab033e818)" d="M 391.3325 128612.892701 
L 393.425 128612.892701 
L 393.425 509.017736 
L 391.3325 509.017736 
z
" style="fill:#8c564b;"/>
   </g>
   <g id="patch_114">
    <path clip-path="url(#pdab033e818)" d="M 424.8125 128612.892701 
L 426.905 128612.892701 
L 426.905 531.659621 
L 424.8125 531.659621 
z
" style="fill:#8c564b;"/>
   </g>
   <g id="patch_115">
    <path clip-path="url(#pdab033e818)" d="M 458.2925 128612.892701 
L 460.385 128612.892701 
L 460.385 531.659621 
L 458.2925 531.659621 
z
" style="fill:#8c564b;"/>
   </g>
   <g id="patch_116">
    <path clip-path="url(#pdab033e818)" d="M 491.7725 128612.892701 
L 493.865 128612.892701 
L 493.865 128612.892701 
L 491.7725 128612.892701 
z
" style="fill:#8c564b;"/>
   </g>
   <g id="patch_117">
    <path clip-path="url(#pdab033e818)" d="M 525.2525 128612.892701 
L 527.345 128612.892701 
L 527.345 128612.892701 
L 525.2525 128612.892701 
z
" style="fill:#8c564b;"/>
   </g>
   <g id="patch_118">
    <path clip-path="url(#pdab033e818)" d="M 558.7325 128612.892701 
L 560.825 128612.892701 
L 560.825 128612.892701 
L 558.7325 128612.892701 
z
" style="fill:#8c564b;"/>
   </g>
   <g id="patch_119">
    <path clip-path="url(#pdab033e818)" d="M 592.2125 128612.892701 
L 594.305 128612.892701 
L 594.305 128612.892701 
L 592.2125 128612.892701 
z
" style="fill:#8c564b;"/>
   </g>
   <g id="patch_120">
    <path clip-path="url(#pdab033e818)" d="M 625.6925 128612.892701 
L 627.785 128612.892701 
L 627.785 570.366179 
L 625.6925 570.366179 
z
" style="fill:#8c564b;"/>
   </g>
   <g id="patch_121">
    <path clip-path="url(#pdab033e818)" d="M 659.1725 128612.892701 
L 661.265 128612.892701 
L 661.265 128612.892701 
L 659.1725 128612.892701 
z
" style="fill:#8c564b;"/>
   </g>
   <g id="patch_122">
    <path clip-path="url(#pdab033e818)" d="M 692.6525 128612.892701 
L 694.745 128612.892701 
L 694.745 128612.892701 
L 692.6525 128612.892701 
z
" style="fill:#8c564b;"/>
   </g>
   <g id="patch_123">
    <path clip-path="url(#pdab033e818)" d="M 58.625 128612.892701 
L 60.7175 128612.892701 
L 60.7175 41.082924 
L 58.625 41.082924 
z
" style="fill:#e377c2;"/>
   </g>
   <g id="patch_124">
    <path clip-path="url(#pdab033e818)" d="M 92.105 128612.892701 
L 94.1975 128612.892701 
L 94.1975 151.274955 
L 92.105 151.274955 
z
" style="fill:#e377c2;"/>
   </g>
   <g id="patch_125">
    <path clip-path="url(#pdab033e818)" d="M 125.585 128612.892701 
L 127.6775 128612.892701 
L 127.6775 265.316556 
L 125.585 265.316556 
z
" style="fill:#e377c2;"/>
   </g>
   <g id="patch_126">
    <path clip-path="url(#pdab033e818)" d="M 159.065 128612.892701 
L 161.1575 128612.892701 
L 161.1575 361.672074 
L 159.065 361.672074 
z
" style="fill:#e377c2;"/>
   </g>
   <g id="patch_127">
    <path clip-path="url(#pdab033e818)" d="M 192.545 128612.892701 
L 194.6375 128612.892701 
L 194.6375 376.322956 
L 192.545 376.322956 
z
" style="fill:#e377c2;"/>
   </g>
   <g id="patch_128">
    <path clip-path="url(#pdab033e818)" d="M 226.025 128612.892701 
L 228.1175 128612.892701 
L 228.1175 404.848357 
L 226.025 404.848357 
z
" style="fill:#e377c2;"/>
   </g>
   <g id="patch_129">
    <path clip-path="url(#pdab033e818)" d="M 259.505 128612.892701 
L 261.5975 128612.892701 
L 261.5975 476.377957 
L 259.505 476.377957 
z
" style="fill:#e377c2;"/>
   </g>
   <g id="patch_130">
    <path clip-path="url(#pdab033e818)" d="M 292.985 128612.892701 
L 295.0775 128612.892701 
L 295.0775 128612.892701 
L 292.985 128612.892701 
z
" style="fill:#e377c2;"/>
   </g>
   <g id="patch_131">
    <path clip-path="url(#pdab033e818)" d="M 326.465 128612.892701 
L 328.5575 128612.892701 
L 328.5575 457.588755 
L 326.465 457.588755 
z
" style="fill:#e377c2;"/>
   </g>
   <g id="patch_132">
    <path clip-path="url(#pdab033e818)" d="M 359.945 128612.892701 
L 362.0375 128612.892701 
L 362.0375 504.903358 
L 359.945 504.903358 
z
" style="fill:#e377c2;"/>
   </g>
   <g id="patch_133">
    <path clip-path="url(#pdab033e818)" d="M 393.425 128612.892701 
L 395.5175 128612.892701 
L 395.5175 488.838685 
L 393.425 488.838685 
z
" style="fill:#e377c2;"/>
   </g>
   <g id="patch_134">
    <path clip-path="url(#pdab033e818)" d="M 426.905 128612.892701 
L 428.9975 128612.892701 
L 428.9975 527.545243 
L 426.905 527.545243 
z
" style="fill:#e377c2;"/>
   </g>
   <g id="patch_135">
    <path clip-path="url(#pdab033e818)" d="M 460.385 128612.892701 
L 462.4775 128612.892701 
L 462.4775 527.545243 
L 460.385 527.545243 
z
" style="fill:#e377c2;"/>
   </g>
   <g id="patch_136">
    <path clip-path="url(#pdab033e818)" d="M 493.865 128612.892701 
L 495.9575 128612.892701 
L 495.9575 566.251801 
L 493.865 566.251801 
z
" style="fill:#e377c2;"/>
   </g>
   <g id="patch_137">
    <path clip-path="url(#pdab033e818)" d="M 527.345 128612.892701 
L 529.4375 128612.892701 
L 529.4375 128612.892701 
L 527.345 128612.892701 
z
" style="fill:#e377c2;"/>
   </g>
   <g id="patch_138">
    <path clip-path="url(#pdab033e818)" d="M 560.825 128612.892701 
L 562.9175 128612.892701 
L 562.9175 128612.892701 
L 560.825 128612.892701 
z
" style="fill:#e377c2;"/>
   </g>
   <g id="patch_139">
    <path clip-path="url(#pdab033e818)" d="M 594.305 128612.892701 
L 596.3975 128612.892701 
L 596.3975 128612.892701 
L 594.305 128612.892701 
z
" style="fill:#e377c2;"/>
   </g>
   <g id="patch_140">
    <path clip-path="url(#pdab033e818)" d="M 627.785 128612.892701 
L 629.8775 128612.892701 
L 629.8775 128612.892701 
L 627.785 128612.892701 
z
" style="fill:#e377c2;"/>
   </g>
   <g id="patch_141">
    <path clip-path="url(#pdab033e818)" d="M 661.265 128612.892701 
L 663.3575 128612.892701 
L 663.3575 566.251801 
L 661.265 566.251801 
z
" style="fill:#e377c2;"/>
   </g>
   <g id="patch_142">
    <path clip-path="url(#pdab033e818)" d="M 694.745 128612.892701 
L 696.8375 128612.892701 
L 696.8375 566.251801 
L 694.745 566.251801 
z
" style="fill:#e377c2;"/>
   </g>
   <g id="patch_143">
    <path clip-path="url(#pdab033e818)" d="M 60.7175 128612.892701 
L 62.81 128612.892701 
L 62.81 41.417149 
L 60.7175 41.417149 
z
" style="fill:#7f7f7f;"/>
   </g>
   <g id="patch_144">
    <path clip-path="url(#pdab033e818)" d="M 94.1975 128612.892701 
L 96.29 128612.892701 
L 96.29 149.626211 
L 94.1975 149.626211 
z
" style="fill:#7f7f7f;"/>
   </g>
   <g id="patch_145">
    <path clip-path="url(#pdab033e818)" d="M 127.6775 128612.892701 
L 129.77 128612.892701 
L 129.77 263.718983 
L 127.6775 263.718983 
z
" style="fill:#7f7f7f;"/>
   </g>
   <g id="patch_146">
    <path clip-path="url(#pdab033e818)" d="M 161.1575 128612.892701 
L 163.25 128612.892701 
L 163.25 346.242463 
L 161.1575 346.242463 
z
" style="fill:#7f7f7f;"/>
   </g>
   <g id="patch_147">
    <path clip-path="url(#pdab033e818)" d="M 194.6375 128612.892701 
L 196.73 128612.892701 
L 196.73 392.940024 
L 194.6375 392.940024 
z
" style="fill:#7f7f7f;"/>
   </g>
   <g id="patch_148">
    <path clip-path="url(#pdab033e818)" d="M 228.1175 128612.892701 
L 230.21 128612.892701 
L 230.21 404.866377 
L 228.1175 404.866377 
z
" style="fill:#7f7f7f;"/>
   </g>
   <g id="patch_149">
    <path clip-path="url(#pdab033e818)" d="M 261.5975 128612.892701 
L 263.69 128612.892701 
L 263.69 446.297464 
L 261.5975 446.297464 
z
" style="fill:#7f7f7f;"/>
   </g>
   <g id="patch_150">
    <path clip-path="url(#pdab033e818)" d="M 295.0775 128612.892701 
L 297.17 128612.892701 
L 297.17 536.171308 
L 295.0775 536.171308 
z
" style="fill:#7f7f7f;"/>
   </g>
   <g id="patch_151">
    <path clip-path="url(#pdab033e818)" d="M 328.5575 128612.892701 
L 330.65 128612.892701 
L 330.65 485.004022 
L 328.5575 485.004022 
z
" style="fill:#7f7f7f;"/>
   </g>
   <g id="patch_152">
    <path clip-path="url(#pdab033e818)" d="M 362.0375 128612.892701 
L 364.13 128612.892701 
L 364.13 536.171308 
L 362.0375 536.171308 
z
" style="fill:#7f7f7f;"/>
   </g>
   <g id="patch_153">
    <path clip-path="url(#pdab033e818)" d="M 395.5175 128612.892701 
L 397.61 128612.892701 
L 397.61 513.529423 
L 395.5175 513.529423 
z
" style="fill:#7f7f7f;"/>
   </g>
   <g id="patch_154">
    <path clip-path="url(#pdab033e818)" d="M 428.9975 128612.892701 
L 431.09 128612.892701 
L 431.09 574.877866 
L 428.9975 574.877866 
z
" style="fill:#7f7f7f;"/>
   </g>
   <g id="patch_155">
    <path clip-path="url(#pdab033e818)" d="M 462.4775 128612.892701 
L 464.57 128612.892701 
L 464.57 574.877866 
L 462.4775 574.877866 
z
" style="fill:#7f7f7f;"/>
   </g>
   <g id="patch_156">
    <path clip-path="url(#pdab033e818)" d="M 495.9575 128612.892701 
L 498.05 128612.892701 
L 498.05 574.877866 
L 495.9575 574.877866 
z
" style="fill:#7f7f7f;"/>
   </g>
   <g id="patch_157">
    <path clip-path="url(#pdab033e818)" d="M 529.4375 128612.892701 
L 531.53 128612.892701 
L 531.53 536.171308 
L 529.4375 536.171308 
z
" style="fill:#7f7f7f;"/>
   </g>
   <g id="patch_158">
    <path clip-path="url(#pdab033e818)" d="M 562.9175 128612.892701 
L 565.01 128612.892701 
L 565.01 128612.892701 
L 562.9175 128612.892701 
z
" style="fill:#7f7f7f;"/>
   </g>
   <g id="patch_159">
    <path clip-path="url(#pdab033e818)" d="M 596.3975 128612.892701 
L 598.49 128612.892701 
L 598.49 128612.892701 
L 596.3975 128612.892701 
z
" style="fill:#7f7f7f;"/>
   </g>
   <g id="patch_160">
    <path clip-path="url(#pdab033e818)" d="M 629.8775 128612.892701 
L 631.97 128612.892701 
L 631.97 128612.892701 
L 629.8775 128612.892701 
z
" style="fill:#7f7f7f;"/>
   </g>
   <g id="patch_161">
    <path clip-path="url(#pdab033e818)" d="M 663.3575 128612.892701 
L 665.45 128612.892701 
L 665.45 128612.892701 
L 663.3575 128612.892701 
z
" style="fill:#7f7f7f;"/>
   </g>
   <g id="patch_162">
    <path clip-path="url(#pdab033e818)" d="M 696.8375 128612.892701 
L 698.93 128612.892701 
L 698.93 536.171308 
L 696.8375 536.171308 
z
" style="fill:#7f7f7f;"/>
   </g>
   <g id="matplotlib.axis_1">
    <g id="xtick_1">
     <g id="line2d_1">
      <defs>
       <path d="M 0 0 
L 0 3.5 
" id="m7c285250fa" style="stroke:#000000;stroke-width:0.8;"/>
      </defs>
      <g>
       <use style="stroke:#000000;stroke-width:0.8;" x="54.44" xlink:href="#m7c285250fa" y="659.52"/>
      </g>
     </g>
     <g id="text_1">
      <!-- 0 -->
      <defs>
       <path d="M 31.78125 66.40625 
Q 24.171875 66.40625 20.328125 58.90625 
Q 16.5 51.421875 16.5 36.375 
Q 16.5 21.390625 20.328125 13.890625 
Q 24.171875 6.390625 31.78125 6.390625 
Q 39.453125 6.390625 43.28125 13.890625 
Q 47.125 21.390625 47.125 36.375 
Q 47.125 51.421875 43.28125 58.90625 
Q 39.453125 66.40625 31.78125 66.40625 
z
M 31.78125 74.21875 
Q 44.046875 74.21875 50.515625 64.515625 
Q 56.984375 54.828125 56.984375 36.375 
Q 56.984375 17.96875 50.515625 8.265625 
Q 44.046875 -1.421875 31.78125 -1.421875 
Q 19.53125 -1.421875 13.0625 8.265625 
Q 6.59375 17.96875 6.59375 36.375 
Q 6.59375 54.828125 13.0625 64.515625 
Q 19.53125 74.21875 31.78125 74.21875 
z
" id="DejaVuSans-48"/>
      </defs>
      <g transform="translate(57.199375 672.8825)rotate(-90)scale(0.1 -0.1)">
       <use xlink:href="#DejaVuSans-48"/>
      </g>
     </g>
    </g>
    <g id="xtick_2">
     <g id="line2d_2">
      <g>
       <use style="stroke:#000000;stroke-width:0.8;" x="87.92" xlink:href="#m7c285250fa" y="659.52"/>
      </g>
     </g>
     <g id="text_2">
      <!-- 1 -->
      <defs>
       <path d="M 12.40625 8.296875 
L 28.515625 8.296875 
L 28.515625 63.921875 
L 10.984375 60.40625 
L 10.984375 69.390625 
L 28.421875 72.90625 
L 38.28125 72.90625 
L 38.28125 8.296875 
L 54.390625 8.296875 
L 54.390625 0 
L 12.40625 0 
z
" id="DejaVuSans-49"/>
      </defs>
      <g transform="translate(90.679375 672.8825)rotate(-90)scale(0.1 -0.1)">
       <use xlink:href="#DejaVuSans-49"/>
      </g>
     </g>
    </g>
    <g id="xtick_3">
     <g id="line2d_3">
      <g>
       <use style="stroke:#000000;stroke-width:0.8;" x="121.4" xlink:href="#m7c285250fa" y="659.52"/>
      </g>
     </g>
     <g id="text_3">
      <!-- 2 -->
      <defs>
       <path d="M 19.1875 8.296875 
L 53.609375 8.296875 
L 53.609375 0 
L 7.328125 0 
L 7.328125 8.296875 
Q 12.9375 14.109375 22.625 23.890625 
Q 32.328125 33.6875 34.8125 36.53125 
Q 39.546875 41.84375 41.421875 45.53125 
Q 43.3125 49.21875 43.3125 52.78125 
Q 43.3125 58.59375 39.234375 62.25 
Q 35.15625 65.921875 28.609375 65.921875 
Q 23.96875 65.921875 18.8125 64.3125 
Q 13.671875 62.703125 7.8125 59.421875 
L 7.8125 69.390625 
Q 13.765625 71.78125 18.9375 73 
Q 24.125 74.21875 28.421875 74.21875 
Q 39.75 74.21875 46.484375 68.546875 
Q 53.21875 62.890625 53.21875 53.421875 
Q 53.21875 48.921875 51.53125 44.890625 
Q 49.859375 40.875 45.40625 35.40625 
Q 44.1875 33.984375 37.640625 27.21875 
Q 31.109375 20.453125 19.1875 8.296875 
z
" id="DejaVuSans-50"/>
      </defs>
      <g transform="translate(124.159375 672.8825)rotate(-90)scale(0.1 -0.1)">
       <use xlink:href="#DejaVuSans-50"/>
      </g>
     </g>
    </g>
    <g id="xtick_4">
     <g id="line2d_4">
      <g>
       <use style="stroke:#000000;stroke-width:0.8;" x="154.88" xlink:href="#m7c285250fa" y="659.52"/>
      </g>
     </g>
     <g id="text_4">
      <!-- 3 -->
      <defs>
       <path d="M 40.578125 39.3125 
Q 47.65625 37.796875 51.625 33 
Q 55.609375 28.21875 55.609375 21.1875 
Q 55.609375 10.40625 48.1875 4.484375 
Q 40.765625 -1.421875 27.09375 -1.421875 
Q 22.515625 -1.421875 17.65625 -0.515625 
Q 12.796875 0.390625 7.625 2.203125 
L 7.625 11.71875 
Q 11.71875 9.328125 16.59375 8.109375 
Q 21.484375 6.890625 26.8125 6.890625 
Q 36.078125 6.890625 40.9375 10.546875 
Q 45.796875 14.203125 45.796875 21.1875 
Q 45.796875 27.640625 41.28125 31.265625 
Q 36.765625 34.90625 28.71875 34.90625 
L 20.21875 34.90625 
L 20.21875 43.015625 
L 29.109375 43.015625 
Q 36.375 43.015625 40.234375 45.921875 
Q 44.09375 48.828125 44.09375 54.296875 
Q 44.09375 59.90625 40.109375 62.90625 
Q 36.140625 65.921875 28.71875 65.921875 
Q 24.65625 65.921875 20.015625 65.03125 
Q 15.375 64.15625 9.8125 62.3125 
L 9.8125 71.09375 
Q 15.4375 72.65625 20.34375 73.4375 
Q 25.25 74.21875 29.59375 74.21875 
Q 40.828125 74.21875 47.359375 69.109375 
Q 53.90625 64.015625 53.90625 55.328125 
Q 53.90625 49.265625 50.4375 45.09375 
Q 46.96875 40.921875 40.578125 39.3125 
z
" id="DejaVuSans-51"/>
      </defs>
      <g transform="translate(157.639375 672.8825)rotate(-90)scale(0.1 -0.1)">
       <use xlink:href="#DejaVuSans-51"/>
      </g>
     </g>
    </g>
    <g id="xtick_5">
     <g id="line2d_5">
      <g>
       <use style="stroke:#000000;stroke-width:0.8;" x="188.36" xlink:href="#m7c285250fa" y="659.52"/>
      </g>
     </g>
     <g id="text_5">
      <!-- 4 -->
      <defs>
       <path d="M 37.796875 64.3125 
L 12.890625 25.390625 
L 37.796875 25.390625 
z
M 35.203125 72.90625 
L 47.609375 72.90625 
L 47.609375 25.390625 
L 58.015625 25.390625 
L 58.015625 17.1875 
L 47.609375 17.1875 
L 47.609375 0 
L 37.796875 0 
L 37.796875 17.1875 
L 4.890625 17.1875 
L 4.890625 26.703125 
z
" id="DejaVuSans-52"/>
      </defs>
      <g transform="translate(191.119375 672.8825)rotate(-90)scale(0.1 -0.1)">
       <use xlink:href="#DejaVuSans-52"/>
      </g>
     </g>
    </g>
    <g id="xtick_6">
     <g id="line2d_6">
      <g>
       <use style="stroke:#000000;stroke-width:0.8;" x="221.84" xlink:href="#m7c285250fa" y="659.52"/>
      </g>
     </g>
     <g id="text_6">
      <!-- 5 -->
      <defs>
       <path d="M 10.796875 72.90625 
L 49.515625 72.90625 
L 49.515625 64.59375 
L 19.828125 64.59375 
L 19.828125 46.734375 
Q 21.96875 47.46875 24.109375 47.828125 
Q 26.265625 48.1875 28.421875 48.1875 
Q 40.625 48.1875 47.75 41.5 
Q 54.890625 34.8125 54.890625 23.390625 
Q 54.890625 11.625 47.5625 5.09375 
Q 40.234375 -1.421875 26.90625 -1.421875 
Q 22.3125 -1.421875 17.546875 -0.640625 
Q 12.796875 0.140625 7.71875 1.703125 
L 7.71875 11.625 
Q 12.109375 9.234375 16.796875 8.0625 
Q 21.484375 6.890625 26.703125 6.890625 
Q 35.15625 6.890625 40.078125 11.328125 
Q 45.015625 15.765625 45.015625 23.390625 
Q 45.015625 31 40.078125 35.4375 
Q 35.15625 39.890625 26.703125 39.890625 
Q 22.75 39.890625 18.8125 39.015625 
Q 14.890625 38.140625 10.796875 36.28125 
z
" id="DejaVuSans-53"/>
      </defs>
      <g transform="translate(224.599375 672.8825)rotate(-90)scale(0.1 -0.1)">
       <use xlink:href="#DejaVuSans-53"/>
      </g>
     </g>
    </g>
    <g id="xtick_7">
     <g id="line2d_7">
      <g>
       <use style="stroke:#000000;stroke-width:0.8;" x="255.32" xlink:href="#m7c285250fa" y="659.52"/>
      </g>
     </g>
     <g id="text_7">
      <!-- 6 -->
      <defs>
       <path d="M 33.015625 40.375 
Q 26.375 40.375 22.484375 35.828125 
Q 18.609375 31.296875 18.609375 23.390625 
Q 18.609375 15.53125 22.484375 10.953125 
Q 26.375 6.390625 33.015625 6.390625 
Q 39.65625 6.390625 43.53125 10.953125 
Q 47.40625 15.53125 47.40625 23.390625 
Q 47.40625 31.296875 43.53125 35.828125 
Q 39.65625 40.375 33.015625 40.375 
z
M 52.59375 71.296875 
L 52.59375 62.3125 
Q 48.875 64.0625 45.09375 64.984375 
Q 41.3125 65.921875 37.59375 65.921875 
Q 27.828125 65.921875 22.671875 59.328125 
Q 17.53125 52.734375 16.796875 39.40625 
Q 19.671875 43.65625 24.015625 45.921875 
Q 28.375 48.1875 33.59375 48.1875 
Q 44.578125 48.1875 50.953125 41.515625 
Q 57.328125 34.859375 57.328125 23.390625 
Q 57.328125 12.15625 50.6875 5.359375 
Q 44.046875 -1.421875 33.015625 -1.421875 
Q 20.359375 -1.421875 13.671875 8.265625 
Q 6.984375 17.96875 6.984375 36.375 
Q 6.984375 53.65625 15.1875 63.9375 
Q 23.390625 74.21875 37.203125 74.21875 
Q 40.921875 74.21875 44.703125 73.484375 
Q 48.484375 72.75 52.59375 71.296875 
z
" id="DejaVuSans-54"/>
      </defs>
      <g transform="translate(258.079375 672.8825)rotate(-90)scale(0.1 -0.1)">
       <use xlink:href="#DejaVuSans-54"/>
      </g>
     </g>
    </g>
    <g id="xtick_8">
     <g id="line2d_8">
      <g>
       <use style="stroke:#000000;stroke-width:0.8;" x="288.8" xlink:href="#m7c285250fa" y="659.52"/>
      </g>
     </g>
     <g id="text_8">
      <!-- 7 -->
      <defs>
       <path d="M 8.203125 72.90625 
L 55.078125 72.90625 
L 55.078125 68.703125 
L 28.609375 0 
L 18.3125 0 
L 43.21875 64.59375 
L 8.203125 64.59375 
z
" id="DejaVuSans-55"/>
      </defs>
      <g transform="translate(291.559375 672.8825)rotate(-90)scale(0.1 -0.1)">
       <use xlink:href="#DejaVuSans-55"/>
      </g>
     </g>
    </g>
    <g id="xtick_9">
     <g id="line2d_9">
      <g>
       <use style="stroke:#000000;stroke-width:0.8;" x="322.28" xlink:href="#m7c285250fa" y="659.52"/>
      </g>
     </g>
     <g id="text_9">
      <!-- 8 -->
      <defs>
       <path d="M 31.78125 34.625 
Q 24.75 34.625 20.71875 30.859375 
Q 16.703125 27.09375 16.703125 20.515625 
Q 16.703125 13.921875 20.71875 10.15625 
Q 24.75 6.390625 31.78125 6.390625 
Q 38.8125 6.390625 42.859375 10.171875 
Q 46.921875 13.96875 46.921875 20.515625 
Q 46.921875 27.09375 42.890625 30.859375 
Q 38.875 34.625 31.78125 34.625 
z
M 21.921875 38.8125 
Q 15.578125 40.375 12.03125 44.71875 
Q 8.5 49.078125 8.5 55.328125 
Q 8.5 64.0625 14.71875 69.140625 
Q 20.953125 74.21875 31.78125 74.21875 
Q 42.671875 74.21875 48.875 69.140625 
Q 55.078125 64.0625 55.078125 55.328125 
Q 55.078125 49.078125 51.53125 44.71875 
Q 48 40.375 41.703125 38.8125 
Q 48.828125 37.15625 52.796875 32.3125 
Q 56.78125 27.484375 56.78125 20.515625 
Q 56.78125 9.90625 50.3125 4.234375 
Q 43.84375 -1.421875 31.78125 -1.421875 
Q 19.734375 -1.421875 13.25 4.234375 
Q 6.78125 9.90625 6.78125 20.515625 
Q 6.78125 27.484375 10.78125 32.3125 
Q 14.796875 37.15625 21.921875 38.8125 
z
M 18.3125 54.390625 
Q 18.3125 48.734375 21.84375 45.5625 
Q 25.390625 42.390625 31.78125 42.390625 
Q 38.140625 42.390625 41.71875 45.5625 
Q 45.3125 48.734375 45.3125 54.390625 
Q 45.3125 60.0625 41.71875 63.234375 
Q 38.140625 66.40625 31.78125 66.40625 
Q 25.390625 66.40625 21.84375 63.234375 
Q 18.3125 60.0625 18.3125 54.390625 
z
" id="DejaVuSans-56"/>
      </defs>
      <g transform="translate(325.039375 672.8825)rotate(-90)scale(0.1 -0.1)">
       <use xlink:href="#DejaVuSans-56"/>
      </g>
     </g>
    </g>
    <g id="xtick_10">
     <g id="line2d_10">
      <g>
       <use style="stroke:#000000;stroke-width:0.8;" x="355.76" xlink:href="#m7c285250fa" y="659.52"/>
      </g>
     </g>
     <g id="text_10">
      <!-- 9 -->
      <defs>
       <path d="M 10.984375 1.515625 
L 10.984375 10.5 
Q 14.703125 8.734375 18.5 7.8125 
Q 22.3125 6.890625 25.984375 6.890625 
Q 35.75 6.890625 40.890625 13.453125 
Q 46.046875 20.015625 46.78125 33.40625 
Q 43.953125 29.203125 39.59375 26.953125 
Q 35.25 24.703125 29.984375 24.703125 
Q 19.046875 24.703125 12.671875 31.3125 
Q 6.296875 37.9375 6.296875 49.421875 
Q 6.296875 60.640625 12.9375 67.421875 
Q 19.578125 74.21875 30.609375 74.21875 
Q 43.265625 74.21875 49.921875 64.515625 
Q 56.59375 54.828125 56.59375 36.375 
Q 56.59375 19.140625 48.40625 8.859375 
Q 40.234375 -1.421875 26.421875 -1.421875 
Q 22.703125 -1.421875 18.890625 -0.6875 
Q 15.09375 0.046875 10.984375 1.515625 
z
M 30.609375 32.421875 
Q 37.25 32.421875 41.125 36.953125 
Q 45.015625 41.5 45.015625 49.421875 
Q 45.015625 57.28125 41.125 61.84375 
Q 37.25 66.40625 30.609375 66.40625 
Q 23.96875 66.40625 20.09375 61.84375 
Q 16.21875 57.28125 16.21875 49.421875 
Q 16.21875 41.5 20.09375 36.953125 
Q 23.96875 32.421875 30.609375 32.421875 
z
" id="DejaVuSans-57"/>
      </defs>
      <g transform="translate(358.519375 672.8825)rotate(-90)scale(0.1 -0.1)">
       <use xlink:href="#DejaVuSans-57"/>
      </g>
     </g>
    </g>
    <g id="xtick_11">
     <g id="line2d_11">
      <g>
       <use style="stroke:#000000;stroke-width:0.8;" x="389.24" xlink:href="#m7c285250fa" y="659.52"/>
      </g>
     </g>
     <g id="text_11">
      <!-- 10 -->
      <g transform="translate(391.999375 679.245)rotate(-90)scale(0.1 -0.1)">
       <use xlink:href="#DejaVuSans-49"/>
       <use x="63.623047" xlink:href="#DejaVuSans-48"/>
      </g>
     </g>
    </g>
    <g id="xtick_12">
     <g id="line2d_12">
      <g>
       <use style="stroke:#000000;stroke-width:0.8;" x="422.72" xlink:href="#m7c285250fa" y="659.52"/>
      </g>
     </g>
     <g id="text_12">
      <!-- 11 -->
      <g transform="translate(425.479375 679.245)rotate(-90)scale(0.1 -0.1)">
       <use xlink:href="#DejaVuSans-49"/>
       <use x="63.623047" xlink:href="#DejaVuSans-49"/>
      </g>
     </g>
    </g>
    <g id="xtick_13">
     <g id="line2d_13">
      <g>
       <use style="stroke:#000000;stroke-width:0.8;" x="456.2" xlink:href="#m7c285250fa" y="659.52"/>
      </g>
     </g>
     <g id="text_13">
      <!-- 12 -->
      <g transform="translate(458.959375 679.245)rotate(-90)scale(0.1 -0.1)">
       <use xlink:href="#DejaVuSans-49"/>
       <use x="63.623047" xlink:href="#DejaVuSans-50"/>
      </g>
     </g>
    </g>
    <g id="xtick_14">
     <g id="line2d_14">
      <g>
       <use style="stroke:#000000;stroke-width:0.8;" x="489.68" xlink:href="#m7c285250fa" y="659.52"/>
      </g>
     </g>
     <g id="text_14">
      <!-- 13 -->
      <g transform="translate(492.439375 679.245)rotate(-90)scale(0.1 -0.1)">
       <use xlink:href="#DejaVuSans-49"/>
       <use x="63.623047" xlink:href="#DejaVuSans-51"/>
      </g>
     </g>
    </g>
    <g id="xtick_15">
     <g id="line2d_15">
      <g>
       <use style="stroke:#000000;stroke-width:0.8;" x="523.16" xlink:href="#m7c285250fa" y="659.52"/>
      </g>
     </g>
     <g id="text_15">
      <!-- 14 -->
      <g transform="translate(525.919375 679.245)rotate(-90)scale(0.1 -0.1)">
       <use xlink:href="#DejaVuSans-49"/>
       <use x="63.623047" xlink:href="#DejaVuSans-52"/>
      </g>
     </g>
    </g>
    <g id="xtick_16">
     <g id="line2d_16">
      <g>
       <use style="stroke:#000000;stroke-width:0.8;" x="556.64" xlink:href="#m7c285250fa" y="659.52"/>
      </g>
     </g>
     <g id="text_16">
      <!-- 15 -->
      <g transform="translate(559.399375 679.245)rotate(-90)scale(0.1 -0.1)">
       <use xlink:href="#DejaVuSans-49"/>
       <use x="63.623047" xlink:href="#DejaVuSans-53"/>
      </g>
     </g>
    </g>
    <g id="xtick_17">
     <g id="line2d_17">
      <g>
       <use style="stroke:#000000;stroke-width:0.8;" x="590.12" xlink:href="#m7c285250fa" y="659.52"/>
      </g>
     </g>
     <g id="text_17">
      <!-- 16 -->
      <g transform="translate(592.879375 679.245)rotate(-90)scale(0.1 -0.1)">
       <use xlink:href="#DejaVuSans-49"/>
       <use x="63.623047" xlink:href="#DejaVuSans-54"/>
      </g>
     </g>
    </g>
    <g id="xtick_18">
     <g id="line2d_18">
      <g>
       <use style="stroke:#000000;stroke-width:0.8;" x="623.6" xlink:href="#m7c285250fa" y="659.52"/>
      </g>
     </g>
     <g id="text_18">
      <!-- 17 -->
      <g transform="translate(626.359375 679.245)rotate(-90)scale(0.1 -0.1)">
       <use xlink:href="#DejaVuSans-49"/>
       <use x="63.623047" xlink:href="#DejaVuSans-55"/>
      </g>
     </g>
    </g>
    <g id="xtick_19">
     <g id="line2d_19">
      <g>
       <use style="stroke:#000000;stroke-width:0.8;" x="657.08" xlink:href="#m7c285250fa" y="659.52"/>
      </g>
     </g>
     <g id="text_19">
      <!-- 18 -->
      <g transform="translate(659.839375 679.245)rotate(-90)scale(0.1 -0.1)">
       <use xlink:href="#DejaVuSans-49"/>
       <use x="63.623047" xlink:href="#DejaVuSans-56"/>
      </g>
     </g>
    </g>
    <g id="xtick_20">
     <g id="line2d_20">
      <g>
       <use style="stroke:#000000;stroke-width:0.8;" x="690.56" xlink:href="#m7c285250fa" y="659.52"/>
      </g>
     </g>
     <g id="text_20">
      <!-- 19 -->
      <g transform="translate(693.319375 679.245)rotate(-90)scale(0.1 -0.1)">
       <use xlink:href="#DejaVuSans-49"/>
       <use x="63.623047" xlink:href="#DejaVuSans-57"/>
      </g>
     </g>
    </g>
   </g>
   <g id="matplotlib.axis_2">
    <g id="ytick_1">
     <g id="line2d_21">
      <defs>
       <path d="M 0 0 
L -3.5 0 
" id="m3594fd8228" style="stroke:#000000;stroke-width:0.8;"/>
      </defs>
      <g>
       <use style="stroke:#000000;stroke-width:0.8;" x="37.7" xlink:href="#m3594fd8228" y="546.812255"/>
      </g>
     </g>
     <g id="text_21">
      <!-- $\mathdefault{10^{-4}}$ -->
      <defs>
       <path d="M 10.59375 35.5 
L 73.1875 35.5 
L 73.1875 27.203125 
L 10.59375 27.203125 
z
" id="DejaVuSans-8722"/>
      </defs>
      <g transform="translate(7.2 550.611473)scale(0.1 -0.1)">
       <use transform="translate(0 0.684375)" xlink:href="#DejaVuSans-49"/>
       <use transform="translate(63.623047 0.684375)" xlink:href="#DejaVuSans-48"/>
       <use transform="translate(128.203125 38.965625)scale(0.7)" xlink:href="#DejaVuSans-8722"/>
       <use transform="translate(186.855469 38.965625)scale(0.7)" xlink:href="#DejaVuSans-52"/>
      </g>
     </g>
    </g>
    <g id="ytick_2">
     <g id="line2d_22">
      <g>
       <use style="stroke:#000000;stroke-width:0.8;" x="37.7" xlink:href="#m3594fd8228" y="418.231853"/>
      </g>
     </g>
     <g id="text_22">
      <!-- $\mathdefault{10^{-3}}$ -->
      <g transform="translate(7.2 422.031071)scale(0.1 -0.1)">
       <use transform="translate(0 0.765625)" xlink:href="#DejaVuSans-49"/>
       <use transform="translate(63.623047 0.765625)" xlink:href="#DejaVuSans-48"/>
       <use transform="translate(128.203125 39.046875)scale(0.7)" xlink:href="#DejaVuSans-8722"/>
       <use transform="translate(186.855469 39.046875)scale(0.7)" xlink:href="#DejaVuSans-51"/>
      </g>
     </g>
    </g>
    <g id="ytick_3">
     <g id="line2d_23">
      <g>
       <use style="stroke:#000000;stroke-width:0.8;" x="37.7" xlink:href="#m3594fd8228" y="289.651451"/>
      </g>
     </g>
     <g id="text_23">
      <!-- $\mathdefault{10^{-2}}$ -->
      <g transform="translate(7.2 293.450669)scale(0.1 -0.1)">
       <use transform="translate(0 0.765625)" xlink:href="#DejaVuSans-49"/>
       <use transform="translate(63.623047 0.765625)" xlink:href="#DejaVuSans-48"/>
       <use transform="translate(128.203125 39.046875)scale(0.7)" xlink:href="#DejaVuSans-8722"/>
       <use transform="translate(186.855469 39.046875)scale(0.7)" xlink:href="#DejaVuSans-50"/>
      </g>
     </g>
    </g>
    <g id="ytick_4">
     <g id="line2d_24">
      <g>
       <use style="stroke:#000000;stroke-width:0.8;" x="37.7" xlink:href="#m3594fd8228" y="161.071049"/>
      </g>
     </g>
     <g id="text_24">
      <!-- $\mathdefault{10^{-1}}$ -->
      <g transform="translate(7.2 164.870267)scale(0.1 -0.1)">
       <use transform="translate(0 0.684375)" xlink:href="#DejaVuSans-49"/>
       <use transform="translate(63.623047 0.684375)" xlink:href="#DejaVuSans-48"/>
       <use transform="translate(128.203125 38.965625)scale(0.7)" xlink:href="#DejaVuSans-8722"/>
       <use transform="translate(186.855469 38.965625)scale(0.7)" xlink:href="#DejaVuSans-49"/>
      </g>
     </g>
    </g>
    <g id="ytick_5">
     <g id="line2d_25">
      <g>
       <use style="stroke:#000000;stroke-width:0.8;" x="37.7" xlink:href="#m3594fd8228" y="32.490646"/>
      </g>
     </g>
     <g id="text_25">
      <!-- $\mathdefault{10^{0}}$ -->
      <g transform="translate(13.1 36.289865)scale(0.1 -0.1)">
       <use transform="translate(0 0.765625)" xlink:href="#DejaVuSans-49"/>
       <use transform="translate(63.623047 0.765625)" xlink:href="#DejaVuSans-48"/>
       <use transform="translate(128.203125 39.046875)scale(0.7)" xlink:href="#DejaVuSans-48"/>
      </g>
     </g>
    </g>
    <g id="ytick_6">
     <g id="line2d_26">
      <defs>
       <path d="M 0 0 
L -2 0 
" id="m85caa363f5" style="stroke:#000000;stroke-width:0.6;"/>
      </defs>
      <g>
       <use style="stroke:#000000;stroke-width:0.6;" x="37.7" xlink:href="#m85caa363f5" y="636.686099"/>
      </g>
     </g>
    </g>
    <g id="ytick_7">
     <g id="line2d_27">
      <g>
       <use style="stroke:#000000;stroke-width:0.6;" x="37.7" xlink:href="#m85caa363f5" y="614.044214"/>
      </g>
     </g>
    </g>
    <g id="ytick_8">
     <g id="line2d_28">
      <g>
       <use style="stroke:#000000;stroke-width:0.6;" x="37.7" xlink:href="#m85caa363f5" y="597.979541"/>
      </g>
     </g>
    </g>
    <g id="ytick_9">
     <g id="line2d_29">
      <g>
       <use style="stroke:#000000;stroke-width:0.6;" x="37.7" xlink:href="#m85caa363f5" y="585.518813"/>
      </g>
     </g>
    </g>
    <g id="ytick_10">
     <g id="line2d_30">
      <g>
       <use style="stroke:#000000;stroke-width:0.6;" x="37.7" xlink:href="#m85caa363f5" y="575.337656"/>
      </g>
     </g>
    </g>
    <g id="ytick_11">
     <g id="line2d_31">
      <g>
       <use style="stroke:#000000;stroke-width:0.6;" x="37.7" xlink:href="#m85caa363f5" y="566.729611"/>
      </g>
     </g>
    </g>
    <g id="ytick_12">
     <g id="line2d_32">
      <g>
       <use style="stroke:#000000;stroke-width:0.6;" x="37.7" xlink:href="#m85caa363f5" y="559.272983"/>
      </g>
     </g>
    </g>
    <g id="ytick_13">
     <g id="line2d_33">
      <g>
       <use style="stroke:#000000;stroke-width:0.6;" x="37.7" xlink:href="#m85caa363f5" y="552.695771"/>
      </g>
     </g>
    </g>
    <g id="ytick_14">
     <g id="line2d_34">
      <g>
       <use style="stroke:#000000;stroke-width:0.6;" x="37.7" xlink:href="#m85caa363f5" y="508.105697"/>
      </g>
     </g>
    </g>
    <g id="ytick_15">
     <g id="line2d_35">
      <g>
       <use style="stroke:#000000;stroke-width:0.6;" x="37.7" xlink:href="#m85caa363f5" y="485.463812"/>
      </g>
     </g>
    </g>
    <g id="ytick_16">
     <g id="line2d_36">
      <g>
       <use style="stroke:#000000;stroke-width:0.6;" x="37.7" xlink:href="#m85caa363f5" y="469.399139"/>
      </g>
     </g>
    </g>
    <g id="ytick_17">
     <g id="line2d_37">
      <g>
       <use style="stroke:#000000;stroke-width:0.6;" x="37.7" xlink:href="#m85caa363f5" y="456.938411"/>
      </g>
     </g>
    </g>
    <g id="ytick_18">
     <g id="line2d_38">
      <g>
       <use style="stroke:#000000;stroke-width:0.6;" x="37.7" xlink:href="#m85caa363f5" y="446.757254"/>
      </g>
     </g>
    </g>
    <g id="ytick_19">
     <g id="line2d_39">
      <g>
       <use style="stroke:#000000;stroke-width:0.6;" x="37.7" xlink:href="#m85caa363f5" y="438.149209"/>
      </g>
     </g>
    </g>
    <g id="ytick_20">
     <g id="line2d_40">
      <g>
       <use style="stroke:#000000;stroke-width:0.6;" x="37.7" xlink:href="#m85caa363f5" y="430.692581"/>
      </g>
     </g>
    </g>
    <g id="ytick_21">
     <g id="line2d_41">
      <g>
       <use style="stroke:#000000;stroke-width:0.6;" x="37.7" xlink:href="#m85caa363f5" y="424.115369"/>
      </g>
     </g>
    </g>
    <g id="ytick_22">
     <g id="line2d_42">
      <g>
       <use style="stroke:#000000;stroke-width:0.6;" x="37.7" xlink:href="#m85caa363f5" y="379.525295"/>
      </g>
     </g>
    </g>
    <g id="ytick_23">
     <g id="line2d_43">
      <g>
       <use style="stroke:#000000;stroke-width:0.6;" x="37.7" xlink:href="#m85caa363f5" y="356.88341"/>
      </g>
     </g>
    </g>
    <g id="ytick_24">
     <g id="line2d_44">
      <g>
       <use style="stroke:#000000;stroke-width:0.6;" x="37.7" xlink:href="#m85caa363f5" y="340.818737"/>
      </g>
     </g>
    </g>
    <g id="ytick_25">
     <g id="line2d_45">
      <g>
       <use style="stroke:#000000;stroke-width:0.6;" x="37.7" xlink:href="#m85caa363f5" y="328.358008"/>
      </g>
     </g>
    </g>
    <g id="ytick_26">
     <g id="line2d_46">
      <g>
       <use style="stroke:#000000;stroke-width:0.6;" x="37.7" xlink:href="#m85caa363f5" y="318.176852"/>
      </g>
     </g>
    </g>
    <g id="ytick_27">
     <g id="line2d_47">
      <g>
       <use style="stroke:#000000;stroke-width:0.6;" x="37.7" xlink:href="#m85caa363f5" y="309.568807"/>
      </g>
     </g>
    </g>
    <g id="ytick_28">
     <g id="line2d_48">
      <g>
       <use style="stroke:#000000;stroke-width:0.6;" x="37.7" xlink:href="#m85caa363f5" y="302.112179"/>
      </g>
     </g>
    </g>
    <g id="ytick_29">
     <g id="line2d_49">
      <g>
       <use style="stroke:#000000;stroke-width:0.6;" x="37.7" xlink:href="#m85caa363f5" y="295.534967"/>
      </g>
     </g>
    </g>
    <g id="ytick_30">
     <g id="line2d_50">
      <g>
       <use style="stroke:#000000;stroke-width:0.6;" x="37.7" xlink:href="#m85caa363f5" y="250.944893"/>
      </g>
     </g>
    </g>
    <g id="ytick_31">
     <g id="line2d_51">
      <g>
       <use style="stroke:#000000;stroke-width:0.6;" x="37.7" xlink:href="#m85caa363f5" y="228.303008"/>
      </g>
     </g>
    </g>
    <g id="ytick_32">
     <g id="line2d_52">
      <g>
       <use style="stroke:#000000;stroke-width:0.6;" x="37.7" xlink:href="#m85caa363f5" y="212.238335"/>
      </g>
     </g>
    </g>
    <g id="ytick_33">
     <g id="line2d_53">
      <g>
       <use style="stroke:#000000;stroke-width:0.6;" x="37.7" xlink:href="#m85caa363f5" y="199.777606"/>
      </g>
     </g>
    </g>
    <g id="ytick_34">
     <g id="line2d_54">
      <g>
       <use style="stroke:#000000;stroke-width:0.6;" x="37.7" xlink:href="#m85caa363f5" y="189.59645"/>
      </g>
     </g>
    </g>
    <g id="ytick_35">
     <g id="line2d_55">
      <g>
       <use style="stroke:#000000;stroke-width:0.6;" x="37.7" xlink:href="#m85caa363f5" y="180.988405"/>
      </g>
     </g>
    </g>
    <g id="ytick_36">
     <g id="line2d_56">
      <g>
       <use style="stroke:#000000;stroke-width:0.6;" x="37.7" xlink:href="#m85caa363f5" y="173.531777"/>
      </g>
     </g>
    </g>
    <g id="ytick_37">
     <g id="line2d_57">
      <g>
       <use style="stroke:#000000;stroke-width:0.6;" x="37.7" xlink:href="#m85caa363f5" y="166.954565"/>
      </g>
     </g>
    </g>
    <g id="ytick_38">
     <g id="line2d_58">
      <g>
       <use style="stroke:#000000;stroke-width:0.6;" x="37.7" xlink:href="#m85caa363f5" y="122.364491"/>
      </g>
     </g>
    </g>
    <g id="ytick_39">
     <g id="line2d_59">
      <g>
       <use style="stroke:#000000;stroke-width:0.6;" x="37.7" xlink:href="#m85caa363f5" y="99.722606"/>
      </g>
     </g>
    </g>
    <g id="ytick_40">
     <g id="line2d_60">
      <g>
       <use style="stroke:#000000;stroke-width:0.6;" x="37.7" xlink:href="#m85caa363f5" y="83.657933"/>
      </g>
     </g>
    </g>
    <g id="ytick_41">
     <g id="line2d_61">
      <g>
       <use style="stroke:#000000;stroke-width:0.6;" x="37.7" xlink:href="#m85caa363f5" y="71.197204"/>
      </g>
     </g>
    </g>
    <g id="ytick_42">
     <g id="line2d_62">
      <g>
       <use style="stroke:#000000;stroke-width:0.6;" x="37.7" xlink:href="#m85caa363f5" y="61.016048"/>
      </g>
     </g>
    </g>
    <g id="ytick_43">
     <g id="line2d_63">
      <g>
       <use style="stroke:#000000;stroke-width:0.6;" x="37.7" xlink:href="#m85caa363f5" y="52.408003"/>
      </g>
     </g>
    </g>
    <g id="ytick_44">
     <g id="line2d_64">
      <g>
       <use style="stroke:#000000;stroke-width:0.6;" x="37.7" xlink:href="#m85caa363f5" y="44.951375"/>
      </g>
     </g>
    </g>
    <g id="ytick_45">
     <g id="line2d_65">
      <g>
       <use style="stroke:#000000;stroke-width:0.6;" x="37.7" xlink:href="#m85caa363f5" y="38.374163"/>
      </g>
     </g>
    </g>
   </g>
   <g id="patch_163">
    <path d="M 37.7 659.52 
L 37.7 7.2 
" style="fill:none;stroke:#000000;stroke-linecap:square;stroke-linejoin:miter;stroke-width:0.8;"/>
   </g>
   <g id="patch_164">
    <path d="M 707.3 659.52 
L 707.3 7.2 
" style="fill:none;stroke:#000000;stroke-linecap:square;stroke-linejoin:miter;stroke-width:0.8;"/>
   </g>
   <g id="patch_165">
    <path d="M 37.7 659.52 
L 707.3 659.52 
" style="fill:none;stroke:#000000;stroke-linecap:square;stroke-linejoin:miter;stroke-width:0.8;"/>
   </g>
   <g id="patch_166">
    <path d="M 37.7 7.2 
L 707.3 7.2 
" style="fill:none;stroke:#000000;stroke-linecap:square;stroke-linejoin:miter;stroke-width:0.8;"/>
   </g>
   <g id="legend_1">
    <g id="patch_167">
     <path d="M 582.157813 132.625 
L 700.3 132.625 
Q 702.3 132.625 702.3 130.625 
L 702.3 14.2 
Q 702.3 12.2 700.3 12.2 
L 582.157813 12.2 
Q 580.157813 12.2 580.157813 14.2 
L 580.157813 130.625 
Q 580.157813 132.625 582.157813 132.625 
z
" style="fill:#ffffff;opacity:0.8;stroke:#cccccc;stroke-linejoin:miter;"/>
    </g>
    <g id="patch_168">
     <path d="M 584.157813 23.798437 
L 604.157813 23.798437 
L 604.157813 16.798437 
L 584.157813 16.798437 
z
" style="fill:#1f77b4;"/>
    </g>
    <g id="text_26">
     <!-- L-20200219-11:5 -->
     <defs>
      <path d="M 9.8125 72.90625 
L 19.671875 72.90625 
L 19.671875 8.296875 
L 55.171875 8.296875 
L 55.171875 0 
L 9.8125 0 
z
" id="DejaVuSans-76"/>
      <path d="M 4.890625 31.390625 
L 31.203125 31.390625 
L 31.203125 23.390625 
L 4.890625 23.390625 
z
" id="DejaVuSans-45"/>
      <path d="M 11.71875 12.40625 
L 22.015625 12.40625 
L 22.015625 0 
L 11.71875 0 
z
M 11.71875 51.703125 
L 22.015625 51.703125 
L 22.015625 39.3125 
L 11.71875 39.3125 
z
" id="DejaVuSans-58"/>
     </defs>
     <g transform="translate(612.157813 23.798437)scale(0.1 -0.1)">
      <use xlink:href="#DejaVuSans-76"/>
      <use x="55.697266" xlink:href="#DejaVuSans-45"/>
      <use x="91.78125" xlink:href="#DejaVuSans-50"/>
      <use x="155.404297" xlink:href="#DejaVuSans-48"/>
      <use x="219.027344" xlink:href="#DejaVuSans-50"/>
      <use x="282.650391" xlink:href="#DejaVuSans-48"/>
      <use x="346.273438" xlink:href="#DejaVuSans-48"/>
      <use x="409.896484" xlink:href="#DejaVuSans-50"/>
      <use x="473.519531" xlink:href="#DejaVuSans-49"/>
      <use x="537.142578" xlink:href="#DejaVuSans-57"/>
      <use x="600.765625" xlink:href="#DejaVuSans-45"/>
      <use x="636.849609" xlink:href="#DejaVuSans-49"/>
      <use x="700.472656" xlink:href="#DejaVuSans-49"/>
      <use x="764.095703" xlink:href="#DejaVuSans-58"/>
      <use x="797.787109" xlink:href="#DejaVuSans-53"/>
     </g>
    </g>
    <g id="patch_169">
     <path d="M 584.157813 38.476562 
L 604.157813 38.476562 
L 604.157813 31.476562 
L 584.157813 31.476562 
z
" style="fill:#ff7f0e;"/>
    </g>
    <g id="text_27">
     <!-- L-20200217-23:5 -->
     <g transform="translate(612.157813 38.476562)scale(0.1 -0.1)">
      <use xlink:href="#DejaVuSans-76"/>
      <use x="55.697266" xlink:href="#DejaVuSans-45"/>
      <use x="91.78125" xlink:href="#DejaVuSans-50"/>
      <use x="155.404297" xlink:href="#DejaVuSans-48"/>
      <use x="219.027344" xlink:href="#DejaVuSans-50"/>
      <use x="282.650391" xlink:href="#DejaVuSans-48"/>
      <use x="346.273438" xlink:href="#DejaVuSans-48"/>
      <use x="409.896484" xlink:href="#DejaVuSans-50"/>
      <use x="473.519531" xlink:href="#DejaVuSans-49"/>
      <use x="537.142578" xlink:href="#DejaVuSans-55"/>
      <use x="600.765625" xlink:href="#DejaVuSans-45"/>
      <use x="636.849609" xlink:href="#DejaVuSans-50"/>
      <use x="700.472656" xlink:href="#DejaVuSans-51"/>
      <use x="764.095703" xlink:href="#DejaVuSans-58"/>
      <use x="797.787109" xlink:href="#DejaVuSans-53"/>
     </g>
    </g>
    <g id="patch_170">
     <path d="M 584.157813 53.154687 
L 604.157813 53.154687 
L 604.157813 46.154687 
L 584.157813 46.154687 
z
" style="fill:#2ca02c;"/>
    </g>
    <g id="text_28">
     <!-- L-20200218-11:5 -->
     <g transform="translate(612.157813 53.154687)scale(0.1 -0.1)">
      <use xlink:href="#DejaVuSans-76"/>
      <use x="55.697266" xlink:href="#DejaVuSans-45"/>
      <use x="91.78125" xlink:href="#DejaVuSans-50"/>
      <use x="155.404297" xlink:href="#DejaVuSans-48"/>
      <use x="219.027344" xlink:href="#DejaVuSans-50"/>
      <use x="282.650391" xlink:href="#DejaVuSans-48"/>
      <use x="346.273438" xlink:href="#DejaVuSans-48"/>
      <use x="409.896484" xlink:href="#DejaVuSans-50"/>
      <use x="473.519531" xlink:href="#DejaVuSans-49"/>
      <use x="537.142578" xlink:href="#DejaVuSans-56"/>
      <use x="600.765625" xlink:href="#DejaVuSans-45"/>
      <use x="636.849609" xlink:href="#DejaVuSans-49"/>
      <use x="700.472656" xlink:href="#DejaVuSans-49"/>
      <use x="764.095703" xlink:href="#DejaVuSans-58"/>
      <use x="797.787109" xlink:href="#DejaVuSans-53"/>
     </g>
    </g>
    <g id="patch_171">
     <path d="M 584.157813 67.832812 
L 604.157813 67.832812 
L 604.157813 60.832812 
L 584.157813 60.832812 
z
" style="fill:#d62728;"/>
    </g>
    <g id="text_29">
     <!-- L-20200218-23:5 -->
     <g transform="translate(612.157813 67.832812)scale(0.1 -0.1)">
      <use xlink:href="#DejaVuSans-76"/>
      <use x="55.697266" xlink:href="#DejaVuSans-45"/>
      <use x="91.78125" xlink:href="#DejaVuSans-50"/>
      <use x="155.404297" xlink:href="#DejaVuSans-48"/>
      <use x="219.027344" xlink:href="#DejaVuSans-50"/>
      <use x="282.650391" xlink:href="#DejaVuSans-48"/>
      <use x="346.273438" xlink:href="#DejaVuSans-48"/>
      <use x="409.896484" xlink:href="#DejaVuSans-50"/>
      <use x="473.519531" xlink:href="#DejaVuSans-49"/>
      <use x="537.142578" xlink:href="#DejaVuSans-56"/>
      <use x="600.765625" xlink:href="#DejaVuSans-45"/>
      <use x="636.849609" xlink:href="#DejaVuSans-50"/>
      <use x="700.472656" xlink:href="#DejaVuSans-51"/>
      <use x="764.095703" xlink:href="#DejaVuSans-58"/>
      <use x="797.787109" xlink:href="#DejaVuSans-53"/>
     </g>
    </g>
    <g id="patch_172">
     <path d="M 584.157813 82.510937 
L 604.157813 82.510937 
L 604.157813 75.510937 
L 584.157813 75.510937 
z
" style="fill:#9467bd;"/>
    </g>
    <g id="text_30">
     <!-- L-20200219-05:5 -->
     <g transform="translate(612.157813 82.510937)scale(0.1 -0.1)">
      <use xlink:href="#DejaVuSans-76"/>
      <use x="55.697266" xlink:href="#DejaVuSans-45"/>
      <use x="91.78125" xlink:href="#DejaVuSans-50"/>
      <use x="155.404297" xlink:href="#DejaVuSans-48"/>
      <use x="219.027344" xlink:href="#DejaVuSans-50"/>
      <use x="282.650391" xlink:href="#DejaVuSans-48"/>
      <use x="346.273438" xlink:href="#DejaVuSans-48"/>
      <use x="409.896484" xlink:href="#DejaVuSans-50"/>
      <use x="473.519531" xlink:href="#DejaVuSans-49"/>
      <use x="537.142578" xlink:href="#DejaVuSans-57"/>
      <use x="600.765625" xlink:href="#DejaVuSans-45"/>
      <use x="636.849609" xlink:href="#DejaVuSans-48"/>
      <use x="700.472656" xlink:href="#DejaVuSans-53"/>
      <use x="764.095703" xlink:href="#DejaVuSans-58"/>
      <use x="797.787109" xlink:href="#DejaVuSans-53"/>
     </g>
    </g>
    <g id="patch_173">
     <path d="M 584.157813 97.189062 
L 604.157813 97.189062 
L 604.157813 90.189062 
L 584.157813 90.189062 
z
" style="fill:#8c564b;"/>
    </g>
    <g id="text_31">
     <!-- L-20200218-05:5 -->
     <g transform="translate(612.157813 97.189062)scale(0.1 -0.1)">
      <use xlink:href="#DejaVuSans-76"/>
      <use x="55.697266" xlink:href="#DejaVuSans-45"/>
      <use x="91.78125" xlink:href="#DejaVuSans-50"/>
      <use x="155.404297" xlink:href="#DejaVuSans-48"/>
      <use x="219.027344" xlink:href="#DejaVuSans-50"/>
      <use x="282.650391" xlink:href="#DejaVuSans-48"/>
      <use x="346.273438" xlink:href="#DejaVuSans-48"/>
      <use x="409.896484" xlink:href="#DejaVuSans-50"/>
      <use x="473.519531" xlink:href="#DejaVuSans-49"/>
      <use x="537.142578" xlink:href="#DejaVuSans-56"/>
      <use x="600.765625" xlink:href="#DejaVuSans-45"/>
      <use x="636.849609" xlink:href="#DejaVuSans-48"/>
      <use x="700.472656" xlink:href="#DejaVuSans-53"/>
      <use x="764.095703" xlink:href="#DejaVuSans-58"/>
      <use x="797.787109" xlink:href="#DejaVuSans-53"/>
     </g>
    </g>
    <g id="patch_174">
     <path d="M 584.157813 111.867187 
L 604.157813 111.867187 
L 604.157813 104.867187 
L 584.157813 104.867187 
z
" style="fill:#e377c2;"/>
    </g>
    <g id="text_32">
     <!-- L-20200219-17:5 -->
     <g transform="translate(612.157813 111.867187)scale(0.1 -0.1)">
      <use xlink:href="#DejaVuSans-76"/>
      <use x="55.697266" xlink:href="#DejaVuSans-45"/>
      <use x="91.78125" xlink:href="#DejaVuSans-50"/>
      <use x="155.404297" xlink:href="#DejaVuSans-48"/>
      <use x="219.027344" xlink:href="#DejaVuSans-50"/>
      <use x="282.650391" xlink:href="#DejaVuSans-48"/>
      <use x="346.273438" xlink:href="#DejaVuSans-48"/>
      <use x="409.896484" xlink:href="#DejaVuSans-50"/>
      <use x="473.519531" xlink:href="#DejaVuSans-49"/>
      <use x="537.142578" xlink:href="#DejaVuSans-57"/>
      <use x="600.765625" xlink:href="#DejaVuSans-45"/>
      <use x="636.849609" xlink:href="#DejaVuSans-49"/>
      <use x="700.472656" xlink:href="#DejaVuSans-55"/>
      <use x="764.095703" xlink:href="#DejaVuSans-58"/>
      <use x="797.787109" xlink:href="#DejaVuSans-53"/>
     </g>
    </g>
    <g id="patch_175">
     <path d="M 584.157813 126.545312 
L 604.157813 126.545312 
L 604.157813 119.545312 
L 584.157813 119.545312 
z
" style="fill:#7f7f7f;"/>
    </g>
    <g id="text_33">
     <!-- L-20200218-17:5 -->
     <g transform="translate(612.157813 126.545312)scale(0.1 -0.1)">
      <use xlink:href="#DejaVuSans-76"/>
      <use x="55.697266" xlink:href="#DejaVuSans-45"/>
      <use x="91.78125" xlink:href="#DejaVuSans-50"/>
      <use x="155.404297" xlink:href="#DejaVuSans-48"/>
      <use x="219.027344" xlink:href="#DejaVuSans-50"/>
      <use x="282.650391" xlink:href="#DejaVuSans-48"/>
      <use x="346.273438" xlink:href="#DejaVuSans-48"/>
      <use x="409.896484" xlink:href="#DejaVuSans-50"/>
      <use x="473.519531" xlink:href="#DejaVuSans-49"/>
      <use x="537.142578" xlink:href="#DejaVuSans-56"/>
      <use x="600.765625" xlink:href="#DejaVuSans-45"/>
      <use x="636.849609" xlink:href="#DejaVuSans-49"/>
      <use x="700.472656" xlink:href="#DejaVuSans-55"/>
      <use x="764.095703" xlink:href="#DejaVuSans-58"/>
      <use x="797.787109" xlink:href="#DejaVuSans-53"/>
     </g>
    </g>
   </g>
  </g>
 </g>
 <defs>
  <clipPath id="pdab033e818">
   <rect height="652.32" width="669.6" x="37.7" y="7.2"/>
  </clipPath>
 </defs>
</svg>
